 <svg  version="1.0" xmlns="http://www.w3.org/2000/svg"  width="300.000000pt" height="300.000000pt" viewBox="0 0 300.000000 300.000000"  preserveAspectRatio="xMidYMid meet">  <g transform="translate(0.000000,300.000000) scale(0.100000,-0.100000)" fill="#ffffff" stroke="none"> <path d="M1445 2653 c-78 -23 -201 -102 -271 -172 -89 -89 -162 -236 -171 -342 -6 -75 5 -92 14 -23 3 21 12 48 20 61 9 13 12 23 8 23 -4 0 -3 6 3 13 6 7 14 28 17 47 3 19 20 64 38 100 40 80 91 116 191 132 49 8 70 16 78 31 9 18 8 19 -16 15 -33 -7 -34 10 0 22 39 15 47 12 40 -14 -7 -27 14 -42 33 -23 8 8 11 8 11 -1 0 -8 9 -10 26 -6 19 5 25 4 20 -5 -4 -6 -3 -11 2 -11 6 0 12 7 16 15 3 8 1 15 -5 15 -6 0 -8 4 -5 8 3 5 -9 8 -27 7 -39 -3 -59 4 -51 16 3 5 -4 13 -15 17 -19 7 -20 8 -3 18 20 13 67 0 57 -16 -3 -5 -1 -10 4 -10 17 0 13 21 -6 37 -16 13 -14 14 20 8 24 -4 37 -3 33 3 -3 5 5 12 19 14 13 3 24 2 23 -1 -2 -19 4 -24 12 -11 8 12 12 13 19 1 6 -9 14 -10 27 -3 14 7 24 6 37 -3 10 -7 26 -11 37 -8 13 4 23 -4 35 -30 9 -20 23 -34 32 -33 9 0 18 -5 21 -13 3 -9 0 -12 -10 -9 -7 3 -27 -1 -43 -8 l-30 -14 40 6 c22 3 45 12 51 20 15 19 23 18 32 -6 7 -18 10 -18 34 -6 25 13 28 12 65 -25 54 -54 73 -77 73 -89 0 -5 5 -10 11 -10 5 0 7 -4 4 -10 -8 -13 5 -13 25 0 14 9 13 11 -9 14 -21 3 -23 16 -2 16 12 0 24 -7 27 -15 4 -8 10 -13 14 -10 5 3 18 -8 30 -25 12 -16 18 -30 13 -30 -4 -1 3 -7 17 -15 14 -7 25 -17 25 -22 1 -4 6 -18 13 -30 9 -17 9 -22 -1 -26 -7 -4 -6 -6 5 -6 10 -1 15 -8 13 -18 -1 -10 3 -28 10 -39 10 -16 11 -24 2 -33 -8 -8 -7 -11 6 -11 21 0 20 -6 1 77 -8 37 -26 86 -39 108 -48 82 -195 206 -325 274 -148 77 -267 97 -375 64z"/> <path d="M1684 2578 c6 -19 -9 -25 -19 -8 -3 6 -12 10 -18 9 -7 0 -2 -7 11 -16 12 -8 22 -22 22 -29 0 -18 8 -18 26 1 14 13 14 15 -1 15 -9 0 -14 4 -11 8 2 4 0 14 -6 22 -8 12 -9 12 -4 -2z"/> <path d="M1530 2559 c0 -7 3 -10 6 -6 6 6 34 -16 34 -27 0 -12 -28 -6 -33 7 -4 9 -8 9 -16 -3 -13 -19 -6 -27 23 -27 31 0 54 42 28 51 -9 3 -23 9 -29 12 -7 3 -13 0 -13 -7z"/> <path d="M2188 2115 c-5 -10 -3 -57 6 -100 2 -11 -3 -28 -12 -37 -11 -13 -12 -18 -2 -18 9 0 10 -3 1 -13 -8 -10 -7 -14 5 -14 11 0 14 7 11 24 -2 13 0 23 4 23 10 0 10 84 0 120 -4 14 -9 20 -13 15z"/> <path d="M1113 2036 c-13 -14 -19 -26 -14 -26 6 0 13 5 16 11 4 6 13 8 20 5 8 -3 19 3 27 12 12 15 11 16 -4 4 -14 -11 -17 -10 -20 3 -2 14 -7 12 -25 -9z"/> <path d="M1372 2003 c26 -30 31 -62 14 -88 -9 -14 -12 -25 -6 -25 5 0 16 10 25 23 17 27 11 77 -12 95 -25 18 -38 15 -21 -5z"/> <path d="M1662 2003 c-16 -14 -16 -14 3 -8 48 17 140 17 175 1 32 -15 33 -16 5 -9 -65 17 -138 8 -185 -21 -40 -25 -42 -27 -15 -21 17 4 38 14 48 22 19 18 19 18 36 -14 16 -31 49 -29 63 2 13 28 21 31 40 11 8 -7 27 -15 44 -18 50 -7 42 26 -12 52 -54 25 -172 27 -202 3z"/> <path d="M1285 1980 c22 -4 49 -10 60 -14 13 -5 11 -2 -5 8 -14 8 -41 15 -60 14 l-35 -1 40 -7z"/> <path d="M1026 1968 c-3 -7 -4 -20 -4 -28 0 -8 -4 -38 -7 -66 -6 -42 -5 -52 9 -57 9 -4 16 -1 16 6 0 8 4 6 10 -3 5 -8 10 -10 10 -4 0 6 -6 17 -14 23 -14 12 -10 57 6 67 5 3 15 1 23 -6 11 -9 12 -7 8 9 -3 11 -11 17 -18 15 -11 -5 -29 29 -26 49 2 12 -9 8 -13 -5z"/> <path d="M1219 1970 c9 -5 7 -9 -6 -12 -10 -3 -27 -9 -37 -14 -14 -5 -17 -4 -12 4 4 7 3 12 -3 12 -12 0 -61 -62 -61 -78 0 -17 79 20 86 41 7 23 26 22 42 -3 15 -24 35 -26 57 -4 14 15 14 17 -2 31 -17 13 -16 14 7 7 14 -3 30 -10 35 -14 19 -13 45 -19 45 -10 0 5 -15 16 -32 23 -36 15 -139 30 -119 17z"/> <path d="M2225 1910 c-22 -11 -46 -19 -52 -20 -14 0 -29 -47 -19 -57 3 -4 6 1 6 9 0 16 97 68 128 68 15 0 15 2 2 10 -19 12 -18 13 -65 -10z"/> <path d="M1694 1912 c9 -15 95 -27 107 -15 5 5 -6 9 -29 9 -20 -1 -48 3 -61 8 -16 5 -21 5 -17 -2z"/> <path d="M2265 1888 c-19 -12 -18 -13 9 -18 61 -11 72 -146 20 -250 -27 -56 -44 -75 -54 -62 -8 11 -61 11 -54 1 3 -5 13 -9 23 -9 9 0 22 -5 28 -11 14 -14 48 7 63 40 23 49 60 165 60 187 0 13 -7 45 -16 71 -22 64 -39 75 -79 51z"/> <path d="M1235 1875 c-5 -2 -30 -5 -54 -7 -25 -2 -46 -8 -48 -14 -3 -8 10 -9 44 -2 72 14 111 26 88 26 -11 0 -24 -1 -30 -3z"/> <path d="M934 1775 c-22 -53 -18 -133 11 -203 14 -34 25 -71 25 -83 0 -33 49 -129 65 -129 28 0 14 59 -14 61 -10 0 -11 2 -3 6 17 7 15 44 -5 73 -15 21 -18 48 -18 167 0 143 0 143 -23 143 -17 0 -27 -9 -38 -35z m40 -41 c10 -25 7 -154 -3 -154 -14 0 -25 74 -22 148 1 25 16 29 25 6z"/> <path d="M2150 1753 c0 -5 9 -18 18 -31 16 -21 20 -22 31 -8 11 13 11 19 1 31 -13 15 -50 21 -50 8z"/> <path d="M1537 1721 c-23 -15 -25 -20 -12 -25 49 -18 100 5 72 33 -15 15 -26 13 -60 -8z"/> <path d="M2250 1708 c-1 -36 -33 -91 -60 -105 -24 -12 -24 -13 -3 -13 46 0 101 82 86 128 -7 20 -23 14 -23 -10z"/> <path d="M1360 1712 c0 -18 26 -32 57 -32 18 0 33 -4 33 -10 0 -5 9 -10 21 -10 11 0 18 4 15 9 -4 5 0 12 6 15 7 3 3 3 -10 0 -14 -3 -33 2 -51 15 -29 21 -71 28 -71 13z"/> <path d="M1320 1679 c0 -27 27 -44 53 -31 22 10 21 11 -5 11 -15 1 -32 9 -37 19 -9 15 -10 15 -11 1z"/> <path d="M2290 1535 c-32 -44 -60 -51 -83 -22 l-18 22 3 -30 c2 -24 8 -31 29 -33 19 -2 35 7 62 38 21 22 37 45 37 50 0 15 -3 13 -30 -25z"/> <path d="M1960 1550 l-25 -7 29 -4 c24 -3 38 -19 83 -94 65 -109 89 -135 120 -135 23 0 62 16 73 29 3 4 28 21 55 39 49 33 34 36 -29 6 -36 -17 -33 -18 -40 11 -4 14 -10 25 -15 25 -5 0 -7 9 -4 20 3 11 0 20 -6 20 -14 0 -14 -33 -1 -46 17 -17 19 -52 4 -65 -11 -9 -14 -9 -14 2 0 10 -5 9 -17 -4 -16 -16 -19 -15 -55 25 -21 24 -38 47 -38 51 0 5 -9 22 -21 38 -11 16 -17 29 -12 29 4 0 0 5 -9 11 -10 5 -18 15 -18 22 0 19 -33 34 -60 27z"/> <path d="M1910 1515 c0 -3 -11 -47 -25 -99 -30 -111 -29 -103 -10 -103 8 0 15 7 16 16 0 11 2 12 6 3 3 -7 -1 -20 -8 -28 -10 -12 -10 -15 2 -12 9 2 15 -7 16 -27 1 -16 4 -66 8 -110 8 -110 8 -115 -5 -130 -6 -7 -21 -15 -33 -18 -12 -3 -59 -19 -104 -35 -45 -17 -84 -28 -87 -24 -3 3 -6 0 -6 -6 0 -14 -3 -14 40 -1 19 5 44 12 55 14 11 3 48 17 82 31 35 15 66 24 70 20 15 -15 -17 -42 -88 -73 -86 -38 -82 -41 19 -13 88 25 85 25 77 -2 -14 -44 -114 -166 -170 -206 -6 -4 -18 -13 -28 -21 -15 -12 -23 -11 -57 4 l-40 18 -38 -30 c-20 -17 -39 -38 -40 -47 -3 -16 -1 -16 26 -2 16 8 33 12 38 8 5 -4 2 1 -5 11 -22 28 -1 40 37 22 17 -9 34 -20 37 -26 4 -5 12 -9 18 -9 22 0 131 97 187 167 l55 68 0 110 c0 61 -3 137 -7 170 -4 33 -10 129 -14 213 -3 83 -10 152 -15 152 -5 0 -9 -2 -9 -5z"/> <path d="M1423 1496 c7 -17 -45 -30 -54 -14 -4 6 -10 1 -14 -11 -3 -11 -15 -21 -25 -21 -10 0 -22 -5 -25 -11 -14 -22 6 -20 62 6 55 26 62 27 163 22 58 -4 117 -9 133 -13 20 -5 27 -3 27 9 0 17 -54 29 -69 14 -5 -5 -18 -4 -32 4 -14 7 -50 12 -81 11 -35 -2 -58 2 -58 8 0 5 -7 10 -16 10 -10 0 -14 -6 -11 -14z"/> <path d="M1520 1373 c-51 -3 -77 -8 -83 -18 -4 -8 -15 -12 -25 -8 -13 5 -14 3 -6 -6 9 -10 21 -10 52 -2 22 6 47 9 55 5 18 -7 94 13 102 26 3 6 0 9 -7 8 -7 -1 -47 -4 -88 -5z"/> <path d="M1120 1171 c0 -6 4 -12 9 -15 29 -19 76 -160 64 -193 -3 -7 -18 -13 -33 -13 -15 0 -30 -6 -33 -12 -2 -7 -50 -37 -106 -67 -69 -37 -101 -60 -102 -73 -1 -10 -3 -22 -4 -28 -1 -5 -3 -17 -4 -25 -1 -9 -11 -15 -27 -15 -14 0 -23 -4 -19 -10 3 -5 17 -10 31 -10 20 0 29 9 43 44 16 36 46 65 57 54 1 -2 -1 -32 -5 -68 -9 -67 -44 -139 -70 -140 -9 0 -10 4 -4 13 5 6 10 26 11 42 2 27 1 28 -8 8 -5 -12 -18 -27 -29 -33 -12 -6 -21 -17 -21 -25 0 -8 -25 -68 -56 -132 -52 -109 -94 -214 -94 -235 0 -4 9 -8 20 -8 22 0 27 16 8 23 -9 3 -7 10 7 21 11 9 15 16 7 16 -7 0 2 21 22 49 19 27 32 52 28 56 -4 4 0 12 8 18 29 23 64 81 52 85 -14 4 66 62 86 62 9 0 11 -7 7 -22 -5 -18 -4 -20 4 -8 6 8 11 27 11 42 0 15 4 29 9 33 20 12 41 70 41 111 0 63 19 140 38 157 9 8 41 23 70 33 30 10 57 26 62 34 11 20 5 116 -9 153 -20 52 -71 108 -71 78z"/> <path d="M1235 1051 c4 -7 3 -16 -3 -20 -12 -7 2 -76 17 -85 12 -8 1 97 -12 109 -7 7 -7 6 -2 -4z"/> <path d="M1539 943 c-6 -7 -8 -14 -3 -14 69 -10 104 -5 104 14 0 18 -87 18 -101 0z"/> <path d="M1248 903 c-2 -16 3 -39 11 -52 12 -19 13 -34 3 -92 -7 -38 -12 -80 -12 -92 0 -34 56 -137 74 -137 6 0 21 -11 35 -24 15 -13 44 -27 66 -30 36 -6 46 -3 95 32 30 21 74 47 97 58 52 24 54 40 6 47 -36 6 -61 -1 -35 -10 10 -4 9 -9 -4 -24 -9 -10 -22 -19 -28 -19 -6 0 -27 -14 -46 -31 -29 -25 -41 -29 -72 -26 -72 9 -158 105 -158 177 0 29 2 31 17 19 15 -12 16 -12 9 6 -17 43 -26 82 -22 102 4 19 -21 123 -29 123 -2 0 -5 -12 -7 -27z"/> <path d="M1720 888 c-39 -16 -201 -48 -244 -48 -22 0 -37 -3 -33 -6 3 -4 39 -6 79 -6 72 -1 205 35 232 62 13 13 -1 12 -34 -2z"/> <path d="M1370 640 c0 -10 63 -40 83 -40 6 0 5 6 -3 14 -20 18 -80 38 -80 26z"/> <path d="M1830 593 c-70 -7 -80 -12 -80 -40 l0 -26 25 23 c16 15 38 24 62 24 20 1 38 7 40 14 3 6 1 11 -4 10 -4 0 -24 -3 -43 -5z"/> <path d="M1689 538 c-17 -18 -35 -32 -39 -31 -5 1 -11 -4 -14 -13 -3 -8 -2 -12 4 -9 6 3 10 2 10 -4 0 -7 8 -7 25 1 14 6 25 17 25 24 0 7 9 18 20 24 21 11 28 40 10 40 -5 0 -24 -15 -41 -32z"/> <path d="M1138 533 c-14 -4 -15 -8 -6 -29 16 -35 -6 -54 -88 -74 -79 -20 -71 -35 9 -19 37 8 66 21 88 41 41 38 82 33 121 -15 14 -17 30 -29 33 -25 4 4 -14 27 -39 51 -25 25 -46 52 -46 61 0 16 -32 20 -72 9z"/> <path d="M1555 464 c-36 -13 -51 -23 -38 -23 28 -1 103 28 103 40 0 5 -1 8 -2 8 -2 -1 -30 -12 -63 -25z"/> <path d="M295 398 c-41 -33 -56 -50 -51 -55 2 -2 25 17 52 42 57 52 56 59 -1 13z"/> <path d="M1725 379 c-38 -15 -65 -28 -58 -29 16 0 116 39 128 51 12 12 12 12 -70 -22z"/> <path d="M1590 344 c-8 -3 -58 -9 -110 -14 l-95 -9 105 5 c58 2 119 8 135 13 27 8 28 9 5 9 -14 0 -32 -2 -40 -4z"/> <path d="M720 190 c0 -5 -6 -10 -14 -10 -7 0 -16 -12 -19 -27 -6 -33 -3 -38 20 -29 15 6 15 9 3 17 -12 8 -12 12 -2 16 17 7 36 43 22 43 -5 0 -10 -4 -10 -10z"/> <path d="M652 59 c-20 -46 -20 -50 -4 -47 9 2 16 11 14 20 -1 8 9 26 22 39 25 24 25 39 2 39 -7 0 -23 -23 -34 -51z"/> </g> </svg> 